<svg xmlns="http://www.w3.org/2000/svg" xml:space="preserve" id="Layer_1" x="0" y="0" version="1.1" viewBox="0 0 28 19"><style>.st0{fill:#f5f5f5}.st1{fill:#ff4b55}</style><path d="M28.4 19.3H-.8c-.3 0-.5-.2-.5-.5V.1c0-.3.2-.5.5-.5h29.2c.3 0 .5.2.5.5v18.8c0 .2-.3.4-.5.4" class="st0"/><path d="M28.9 1.1H-1.3v-1c0-.3.2-.5.5-.5h29.2c.3 0 .5.2.5.5zM-1.3 5.6h30.2v1.5H-1.3zM-1.3 2.6h30.2v1.5H-1.3zM28.9 10.2H-.8c-.3 0-.5-.2-.5-.5v-1h30.2zM-1.3 14.8h30.2v1.5H-1.3zM28.4 19.3H-.8c-.3 0-.5-.2-.5-.5v-1h30.2v1c0 .3-.3.5-.5.5M-1.3 11.7h30.2v1.5H-1.3z" class="st1"/><path d="M12.2-.5h-13c-.3 0-.5.2-.5.5v9.6c0 .3.2.5.5.5h13c.3 0 .5-.2.5-.5V.1c0-.3-.2-.6-.5-.6" style="fill:#41479b"/><path d="m.1.7.1.3h.4s.1.1 0 .1l-.3.3.1.3s0 .1-.1.1l-.2-.2-.3.2s-.1 0-.1-.1l.1-.3-.3-.2v-.1h.4zC0 .7.1.7.1.7M.1 2.5l.1.3h.4s.1.1 0 .1l-.3.3.1.3s0 .1-.1.1l-.2-.2-.3.2s-.1 0-.1-.1l.1-.3-.3-.2v-.1h.4zc-.1 0 0 0 0 0M.1 4.4l.1.3h.4s.1.1 0 .1L.3 5l.1.3s0 .1-.1.1l-.2-.2-.3.2s-.1 0-.1-.1l.1-.3-.3-.2v-.1h.4zc-.1-.1 0-.1 0 0M.1 6.2l.1.3h.4s.1.1 0 .1l-.3.2.1.3s0 .1-.1.1L.1 7l-.3.2s-.1 0-.1-.1l.1-.3-.3-.2v-.1h.4zc-.1-.1 0-.1 0 0M.1 8l.1.3h.4s.1.1 0 .1l-.3.2.1.4s0 .1-.1.1l-.2-.3-.3.2s-.1 0-.1-.1l.1-.3-.3-.2v-.1h.4zc-.1-.1 0-.1 0 0M1.5 1.6l.1.4H2s.1.1 0 .1l-.3.2.1.3s0 .1-.1.1l-.2-.2-.3.2s-.1 0-.1-.1l.1-.3-.3-.2V2h.4zc-.1 0 0 0 0 0M1.5 3.4l.1.3H2s.1.1 0 .1l-.3.3.1.3s0 .1-.1.1l-.2-.2-.3.2s-.1 0-.1-.1l.1-.3-.3-.2v-.1h.4zc-.1 0 0 0 0 0M1.5 5.2l.1.3H2s.1.1 0 .1l-.3.3.1.3s0 .1-.1.1l-.2-.2-.3.2s-.1 0-.1-.1l.1-.3-.3-.2v-.1h.4zc-.1 0 0 0 0 0M1.5 7.1l.1.3H2s.1.1 0 .1l-.3.2.1.3s0 .1-.1.1l-.2-.2-.3.2s-.1 0-.1-.1l.1-.3-.3-.2v-.1h.4zc-.1-.1 0-.1 0 0M2.9.7l.1.4h.4s.1.1 0 .1l-.3.2.1.3s0 .1-.1.1l-.2-.2-.3.2s-.1 0-.1-.1l.1-.3-.3-.2v-.1h.4zM2.9 2.5l.1.4h.4s.1.1 0 .1l-.3.2.1.3s0 .1-.1.1l-.2-.2-.3.2s-.1 0-.1-.1l.1-.3-.3-.2v-.1h.4zM2.9 4.4l.1.3h.4s.1.1 0 .1l-.3.2.1.3s0 .1-.1.1l-.2-.2-.3.2s-.1 0-.1-.1l.1-.3-.3-.2v-.1h.4zq0-.15 0 0M2.9 6.2l.1.3h.4s.1.1 0 .1l-.3.2.1.3s0 .1-.1.1L2.9 7l-.3.2s-.1 0-.1-.1l.1-.3-.3-.2v-.1h.4zq0-.15 0 0M2.9 8l.1.3h.4s.1.1 0 .1l-.3.2.2.4s0 .1-.1.1l-.3-.3-.3.2s-.1 0-.1-.1l.1-.3-.3-.2v-.1h.4zq0-.15 0 0M4.3 1.6l.1.4h.4s.1.1 0 .1l-.3.2.1.3s0 .1-.1.1l-.2-.2-.3.2s-.1 0-.1-.1l.1-.3-.3-.2V2h.4zM4.3 3.4l.1.3h.4s.1.1 0 .1l-.3.3.1.3s0 .1-.1.1l-.2-.2-.3.2s-.1 0-.1-.1l.1-.3-.3-.2v-.1h.4zM4.3 5.2l.1.3h.4s.1.1 0 .1l-.3.3.1.3s0 .1-.1.1l-.2-.2-.3.2s-.1 0-.1-.1l.1-.3-.3-.2v-.1h.4zM4.3 7.1l.1.3h.4s.1.1 0 .1l-.3.2.1.3s0 .1-.1.1l-.2-.2-.3.2s-.1 0-.1-.1l.1-.3-.3-.2v-.1h.4zq0-.15 0 0M5.7.7l.1.3h.4s.1.1 0 .1l-.2.3.1.3s0 .1-.1.1l-.3-.2-.3.2s-.1 0-.1-.1l.1-.3-.3-.2v-.1h.4zM5.7 2.5l.1.3h.4s.1.1 0 .1l-.2.3.1.3s0 .1-.1.1l-.3-.2-.3.2s-.1 0-.1-.1l.1-.3-.3-.2v-.1h.4zM5.7 4.4l.1.3h.4s.1.1 0 .1L6 5l.1.3s0 .1-.1.1l-.3-.2-.3.2s-.1 0-.1-.1l.1-.3-.3-.2v-.1h.4zq0-.15 0 0M5.7 6.2l.1.3h.4s.1.1 0 .1l-.2.2.1.3s0 .1-.1.1L5.7 7l-.3.2s-.1 0-.1-.1l.1-.3-.3-.2v-.1h.4zq0-.15 0 0M5.7 8l.1.3h.4s.1.1 0 .1l-.2.2.1.4S6 9.1 6 9l-.3-.2-.3.2s-.1 0-.1-.1l.1-.3-.3-.2v-.1h.4zq0-.15 0 0M7.1 1.6l.2.4h.4s.1.1 0 .1l-.3.2.1.3s0 .1-.1.1l-.3-.2-.3.2s-.1 0-.1-.1l.1-.3-.3-.2V2h.4zM7.1 3.4l.1.3h.4s.1.1 0 .1l-.2.3.1.3s0 .1-.1.1l-.3-.2-.3.2s-.1 0-.1-.1l.1-.3-.3-.2v-.1h.4zM7.1 5.2l.1.3h.4s.1.1 0 .1l-.2.3.1.3s0 .1-.1.1l-.3-.2-.3.2s-.1 0-.1-.1l.1-.3-.3-.2v-.1h.4zM7.1 7.1l.1.3h.4s.1.1 0 .1l-.2.2.1.3s0 .1-.1.1l-.3-.2-.3.2s-.1 0-.1-.1l.1-.3-.3-.2v-.1h.4zq0-.15 0 0M8.5.7l.1.3H9s.1.1 0 .1l-.2.3.1.3s0 .1-.1.1l-.3-.2-.3.2s-.1 0-.1-.1l.1-.3-.3-.2v-.1h.4zM8.5 2.5l.1.3H9s.1.1 0 .1l-.2.3.1.3s0 .1-.1.1l-.3-.2-.3.2s-.1 0-.1-.1l.1-.3-.3-.2v-.1h.4zM8.5 4.4l.1.3H9s.1.1 0 .1l-.2.2.1.3s0 .1-.1.1l-.3-.2-.3.2s-.1 0-.1-.1l.1-.3-.3-.2v-.1h.4zq0-.15 0 0M8.5 6.2l.1.3H9s.1.1 0 .1l-.2.2.1.3s0 .1-.1.1L8.5 7l-.3.2s-.1 0-.1-.1l.1-.3-.3-.2v-.1h.4zq0-.15 0 0M8.5 8l.1.3H9s.1.1 0 .1l-.2.2.1.4s0 .1-.1.1l-.3-.3-.3.2s-.1 0-.1-.1l.1-.3-.3-.2v-.1h.4zq0-.15 0 0M9.9 1.6l.2.4h.4s.1.1 0 .1l-.3.2.1.3s0 .1-.1.1l-.3-.2-.3.2s-.1 0-.1-.1l.1-.3-.3-.2V2h.4zM9.9 3.4l.1.3h.4s.1.1 0 .1l-.3.2.1.3s0 .1-.1.1l-.2-.1-.3.2s-.1 0-.1-.1l.1-.3-.3-.2v-.1h.4zM9.9 5.2l.1.3h.4s.1.1 0 .1l-.3.2.1.3s0 .1-.1.1l-.2-.1-.3.2s-.1 0-.1-.1l.1-.3-.3-.2v-.1h.4zM9.9 7.1l.1.3h.4s.1.1 0 .1l-.3.2.1.3s0 .1-.1.1l-.2-.2-.3.2s-.1 0-.1-.1l.1-.3-.3-.2v-.1h.4zq0-.15 0 0M11.4.7l.1.3h.4s.1.1 0 .1l-.3.2.1.3s0 .1-.1.1l-.3-.2-.3.3s-.1 0-.1-.1l.1-.3-.3-.2v-.1h.4zq-.15 0 0 0M11.4 2.5l.1.3h.4s.1.1 0 .1l-.3.2.1.3s0 .1-.1.1l-.3-.2-.3.3s-.1 0-.1-.1l.1-.3-.2-.2v-.1h.4zq-.15 0 0 0M11.4 4.4l.1.3h.4s.1.1 0 .1l-.3.2.1.3s0 .1-.1.1l-.3-.2-.3.2s-.1 0-.1-.1L11 5l-.3-.2v-.1h.4zq-.15-.15 0 0M11.4 6.2l.1.3h.4s.1.1 0 .1l-.3.2.1.3s0 .1-.1.1l-.3-.2-.3.2s-.1 0-.1-.1l.1-.3-.3-.2v-.1h.4zq-.15-.15 0 0M11.4 8l.1.3h.4s.1.1 0 .1l-.3.2.1.4s0 .1-.1.1l-.3-.2-.3.1s-.1 0-.1-.1l.1-.3-.3-.2v-.1h.4zq-.15-.15 0 0" class="st0"/></svg>